PathFileType	4	(X/Y/Z)	C:/Users/opensim2020/Desktop/walking_exp_matlab/subject01_walking05_straight_01.trc																																																																																																																															
DataRate	CameraRate	NumFrames	NumMarkers	Units	OrigDataRate	OrigDataStartFrame	OrigNumFrames																																																																																																																											
100	100	7	43	mm	100	844	239																																																																																																																											
Frame#	Time	LFHD			RFHD			LBHD			RBHD			C7			T10			CLAV			STRN			RBAK			LSHO			LUPA			LELB			LFRM			LWRA			LWRB			LFIN			RSHO			RUPA			RELB			RFRM			RWRA			RWRB			RFIN			LASI			RASI			LPSI			RPSI			LTHI			LKNE			LTIB			LANK			LHEE			LTOE			RTHI			RKNE			RTIB			RANK			RHEE			RTOE			*39			*40			*41			*42		
		X1	Y1	Z1	X2	Y2	Z2	X3	Y3	Z3	X4	Y4	Z4	X5	Y5	Z5	X6	Y6	Z6	X7	Y7	Z7	X8	Y8	Z8	X9	Y9	Z9	X10	Y10	Z10	X11	Y11	Z11	X12	Y12	Z12	X13	Y13	Z13	X14	Y14	Z14	X15	Y15	Z15	X16	Y16	Z16	X17	Y17	Z17	X18	Y18	Z18	X19	Y19	Z19	X20	Y20	Z20	X21	Y21	Z21	X22	Y22	Z22	X23	Y23	Z23	X24	Y24	Z24	X25	Y25	Z25	X26	Y26	Z26	X27	Y27	Z27	X28	Y28	Z28	X29	Y29	Z29	X30	Y30	Z30	X31	Y31	Z31	X32	Y32	Z32	X33	Y33	Z33	X34	Y34	Z34	X35	Y35	Z35	X36	Y36	Z36	X37	Y37	Z37	X38	Y38	Z38	X39	Y39	Z39	X40	Y40	Z40	X41	Y41	Z41	X42	Y42	Z42	X43	Y43	Z43
																																																																																																																																		
90	0.89	-319.63062	1670.45215	-1063.42615	-307.95697	1681.59265	-949.97473	-416.13477	1590.58118	-1054.19995	-406.4931	1600.11316	-933.92285	-419.00735	1422.22375	-1015.31281	-442.10809	1128.68652	-1009.36792	-271.91211	1360.87793	-1006.32898	-223.25938	1206.91443	-1012.64288	-467.59021	1224.15076	-943.95087	-325.68851	1388.08582	-1170.12708	-331.02155	1208.00281	-1262.02441	-314.759	1055.93469	-1278.84448	-225.73019	979.92133	-1301.38953	-99.46986	926.15253	-1282.87256	-142.37439	890.83881	-1305.42029	-65.87537	860.79871	-1318.02026	-344.43695	1382.39001	-856.6394	-413.70569	1179.34973	-768.06165	-416.21219	1055.19434	-769.72009	-401.26184	936.23859	-740.5683	-329.63922	813.43359	-755.77515	-377.81113	817.04297	-722.55615	-347.46268	737.7298	-722.60724	-271.11377	921.39484	-1120.72913	-261.63089	932.97681	-905.1817	-454.48257	935.14868	-1059.25745	-447.72794	939.81592	-913.56573	-349.1153	589.87543	-1171.16479	-384.78369	457.32373	-1163.45874	-516.70215	319.24408	-1175.99219	-652.43811	145.34026	-1131.63367	-705.00128	149.18269	-1080.74243	-559.4527	32.10504	-1124.87805	-251.76889	606.70056	-837.95392	-205.616	455.90366	-864.50208	-224.82175	280.23572	-849.96765	-213.18686	73.48671	-893.94495	-259.32056	33.43787	-943.97736	-71.02046	39.14428	-898.46021	-330.83951	1708.72302	-972.47345	1973.16541	1023.42798	-3101.81323	2012.52612	1022.06128	-3140.67212	NaN	NaN	NaN
91	0.9	-311.41602	1671.6239	-1061.22925	-299.54657	1682.88037	-947.69293	-407.75754	1591.61206	-1051.76892	-397.8103	1601.22461	-931.4469	-410.00873	1423.1261	-1012.9198	-432.71405	1129.71399	-1007.42767	-262.84927	1362.32336	-1003.87836	-213.80151	1208.42419	-1010.67474	-457.97522	1224.97827	-941.69263	-316.97879	1389.46887	-1167.81299	-323.5567	1209.35217	-1259.76599	-309.01071	1057.24194	-1276.52271	-220.95424	980.07892	-1299.15918	-95.52351	924.30878	-1280.71594	-138.98541	889.71088	-1303.37683	-62.80043	858.77777	-1316.21387	-335.20825	1383.6759	-854.41602	-403.53998	1180.23657	-766.0611	-405.31836	1056.24243	-767.68024	-389.87827	937.38281	-738.76544	-317.98691	814.7511	-754.23401	-366.33591	818.33234	-720.992	-335.17108	738.76965	-721.09155	-261.61545	922.56409	-1118.54785	-251.90115	934.47058	-903.31586	-444.73581	936.35553	-1057.56909	-437.90378	941.77496	-911.89087	-333.77734	589.64575	-1170.35168	-367.10471	456.81149	-1163.50574	-502.93121	322.53665	-1175.61047	-642.54364	152.28319	-1130.57776	-693.62958	158.54443	-1078.57581	-558.51727	32.6742	-1123.72937	-242.94	607.33032	-835.96887	-200.34593	455.6846	-862.7868	-221.94145	280.08148	-848.75873	-212.77634	73.43944	-893.70093	-259.39072	33.1973	-943.4491	-70.6156	38.42164	-899.00684	-322.50345	1709.94519	-970.29797	1973.11829	1023.42529	-3101.75269	2012.52698	1022.0119	-3140.69189	NaN	NaN	NaN
92	0.91	-303.13867	1672.61389	-1059.01538	-291.13785	1683.90039	-945.47162	-399.3728	1592.52466	-1049.42627	-389.28873	1602.11536	-929.09839	-400.9473	1423.94141	-1010.59845	-423.48868	1130.74146	-1005.4353	-253.81514	1363.65369	-1001.9267	-204.41718	1209.74976	-1008.93304	-448.39655	1225.89771	-939.32959	-308.29977	1390.80164	-1165.64819	-316.02945	1210.65759	-1257.6571	-303.33508	1058.64514	-1274.24988	-216.45367	980.11163	-1296.93018	-91.9059	922.29993	-1278.54956	-135.838	888.52191	-1301.13672	-60.22178	856.14648	-1313.80505	-325.87119	1384.95374	-852.33893	-393.2861	1181.28271	-764.03485	-394.34235	1057.36621	-765.67285	-378.33347	938.58551	-736.94635	-306.34033	816.15656	-753.0108	-353.83438	819.64606	-719.25146	-322.93521	740.06488	-719.58051	-252.1432	923.90198	-1116.34155	-242.37241	935.93439	-901.26501	-435.19302	937.46973	-1055.73816	-427.78073	943.12854	-910.09979	-317.91635	589.3266	-1169.71362	-349.10934	456.35522	-1163.80969	-488.2309	325.79321	-1174.86475	-631.4884	159.4045	-1129.37415	-681.05054	167.96762	-1076.40222	-556.80121	33.56419	-1121.98584	-236.04222	607.89807	-834.37543	-195.46774	455.55585	-861.10632	-218.98064	279.81857	-847.91486	-212.48941	73.45835	-893.52271	-259.38861	33.49051	-943.25592	-70.2571	37.85209	-899.33203	-314.02692	1711.00195	-968.05853	1973.07996	1023.27515	-3101.77271	2012.52234	1022.0426	-3140.61426	NaN	NaN	NaN
93	0.92	-294.91861	1673.5614	-1056.80383	-282.80441	1684.65979	-943.3501	-390.97214	1593.26233	-1047.26086	-380.74036	1602.75952	-926.87231	-392.0687	1424.68091	-1008.46918	-414.40302	1131.61572	-1003.48291	-244.74287	1364.81384	-1000.13654	-195.17902	1210.93298	-1007.35974	-438.81131	1226.77661	-936.80328	-299.75516	1391.99475	-1163.66858	-308.56982	1211.93652	-1255.82129	-297.95709	1059.81616	-1271.96118	-212.14111	980.00128	-1294.81274	-88.50065	920.12524	-1276.34973	-133.00877	887.08142	-1299.02771	-57.82618	853.52173	-1311.72437	-316.31192	1386.19788	-850.4726	-382.95813	1182.41846	-761.88593	-383.37631	1058.52502	-763.5589	-366.65363	939.85333	-735.01074	-293.89609	817.73035	-751.16473	-341.66187	820.94177	-717.41211	-310.12106	741.41107	-717.94189	-243.18352	925.17395	-1114.06445	-233.04401	937.24835	-899.1983	-425.92493	938.35535	-1053.76135	-418.32455	944.62054	-908.24121	-301.92856	588.95013	-1169.13684	-330.97696	455.83398	-1163.77539	-472.61008	328.91766	-1173.99316	-619.44067	166.24605	-1127.78088	-667.97687	176.90483	-1074.38403	-553.29834	35.81184	-1120.5863	-230.28146	608.57825	-832.66608	-190.92494	455.28842	-859.87006	-216.33415	279.63977	-847.20782	-212.3056	73.4387	-893.46234	-259.42868	33.11929	-943.0072	-70.03671	37.41301	-899.36572	-305.81342	1711.84302	-965.77844	1973.09375	1023.47211	-3102.01392	2012.49231	1022.01807	-3140.67285	NaN	NaN	NaN
94	0.93	-286.68408	1674.23413	-1054.57324	-274.46277	1685.30774	-941.17529	-382.53171	1593.80188	-1045.14905	-372.29092	1603.1416	-924.79156	-383.26547	1425.32544	-1006.3689	-405.29401	1132.43945	-1001.4295	-235.75874	1365.828	-998.60583	-186.03641	1211.91663	-1005.99359	-429.30542	1227.66406	-934.16516	-291.29996	1393.0686	-1161.78821	-301.19696	1213.073	-1254.16541	-292.80182	1060.73096	-1269.81128	-208.1683	979.61475	-1292.59448	-85.34664	917.72357	-1274.19031	-130.37007	885.57886	-1297.05066	-55.83112	850.30688	-1309.36316	-306.59314	1387.31555	-848.87	-372.34955	1183.53613	-759.67639	-372.38058	1059.62292	-761.41907	-354.8595	941.05664	-733.00439	-281.5051	819.21423	-749.70624	-329.28595	822.33929	-715.81708	-297.15024	742.70593	-716.41919	-234.24387	926.2121	-1111.98328	-223.84752	938.36469	-897.22485	-416.96066	939.08112	-1051.68433	-409.69156	946.25507	-906.25116	-286.03662	588.50879	-1168.38513	-313.00494	455.34009	-1163.37646	-456.27548	331.53241	-1172.65955	-606.9671	172.63124	-1126.05835	-654.80267	185.02301	-1072.37012	-547.01361	40.02492	-1120.23987	-225.181	608.51453	-831.06036	-186.60811	454.84689	-858.13483	-213.8114	279.51447	-846.46985	-211.93221	73.2673	-893.28076	-259.41888	33.47558	-942.98907	-69.86556	37.14314	-899.35474	-297.65622	1712.42004	-963.5918	1973.04175	1023.87677	-3101.94141	2012.57605	1022.03821	-3140.54932	NaN	NaN	NaN
95	0.94	-278.45474	1674.94946	-1052.41321	-266.1774	1685.88416	-939.07831	-374.07385	1594.29065	-1043.18628	-363.78479	1603.35938	-922.85498	-374.4704	1425.94507	-1004.40521	-396.18149	1133.00293	-999.29456	-226.79219	1366.68079	-997.19238	-177.0712	1212.74463	-1004.7854	-419.84592	1228.50073	-931.53259	-282.91174	1393.96484	-1160.06824	-293.96228	1214.05359	-1252.70862	-287.87369	1061.52295	-1267.5907	-204.37373	978.93573	-1290.5238	-82.36156	915.09167	-1272.1062	-127.96487	883.76019	-1295.01978	-53.89064	847.16095	-1307.14954	-296.88898	1388.32654	-847.15259	-361.66666	1184.59167	-757.37311	-361.35803	1060.56165	-759.18939	-342.96628	942.03394	-730.927	-269.04581	820.66925	-748.50806	-316.34344	823.35223	-713.88623	-283.72769	743.99072	-714.87732	-225.87531	927.0528	-1109.99133	-214.96773	939.18976	-895.26703	-408.24063	939.45587	-1049.63647	-400.60013	947.21448	-904.45239	-270.49673	588.1286	-1167.33899	-295.32376	454.89218	-1162.49182	-439.52481	333.80371	-1171.323	-594.15717	179.22366	-1123.71777	-641.05878	192.37436	-1069.57727	-537.52209	45.00228	-1121.5636	-220.60628	608.51331	-830.07147	-182.65906	454.31149	-856.82507	-211.80939	279.29443	-845.92084	-212.17982	73.26157	-893.30347	-259.54553	33.45424	-942.90143	-69.59739	36.89324	-899.59778	-289.43213	1712.97974	-961.39587	1973.07129	1023.46973	-3101.97339	2012.50122	1022.04846	-3140.67407	NaN	NaN	NaN
96	0.95	-270.23126	1675.70679	-1050.51648	-257.83438	1686.47974	-936.98737	-365.5661	1594.77209	-1041.20044	-355.18884	1603.63062	-920.961	-365.59439	1426.60498	-1002.55676	-387.34415	1133.71033	-997.16461	-217.8634	1367.39917	-995.95856	-168.19724	1213.50146	-1003.81818	-410.53928	1229.36865	-928.91852	-274.58154	1394.68372	-1158.63086	-286.89877	1214.83472	-1251.29041	-282.69318	1061.9834	-1265.3595	-200.78407	978.04401	-1288.52893	-79.60686	912.31708	-1270.15332	-125.73196	881.70593	-1292.98621	-52.17508	843.78485	-1304.94861	-287.04083	1389.20679	-845.65894	-350.90347	1185.61401	-754.96912	-350.28705	1061.35901	-756.97351	-330.87808	942.80756	-728.87451	-256.01337	822.0976	-746.74463	-303.61185	824.42731	-712.1593	-270.11768	745.18353	-713.36536	-217.39258	927.69763	-1108.30627	-206.14803	939.80817	-893.38049	-399.73798	939.53906	-1047.68188	-391.8364	948.17255	-902.41656	-255.40556	588.02515	-1166.00037	-278.0206	454.61243	-1161.52673	-422.5918	335.80988	-1170.29309	-580.70453	185.65689	-1121.18958	-626.6076	197.84648	-1065.54321	-525.92444	50.58797	-1123.63672	-216.06219	608.29633	-828.84241	-179.0609	453.84525	-855.63672	-210.04378	279.01535	-845.40973	-212.19687	73.25735	-893.32465	-259.69089	33.44632	-942.91797	-69.51163	36.90882	-899.38019	-281.2934	1713.42383	-959.27313	1973.21411	1023.41559	-3101.91162	2012.54285	1022.09021	-3140.60889	NaN	NaN	NaN
